<?xml version="1.0" encoding="iso-8859-1"?>
<!-- Generator: Adobe Illustrator 19.0.0, SVG Export Plug-In . SVG Version: 6.00 Build 0)  -->
<svg version="1.1" id="Layer_1" xmlns="http://www.w3.org/2000/svg" xmlns:xlink="http://www.w3.org/1999/xlink" x="0px" y="0px"
	 viewBox="0 0 512 512" style="enable-background:new 0 0 512 512;" xml:space="preserve">
<circle style="fill:#E03A00;" cx="256" cy="256" r="256"/>
<path style="fill:#940030;" d="M141.755,387.277l124.5,124.5c132.118-5.208,238.508-110.525,245.386-242.209l-98.449-98.449
	L141.755,387.277z"/>
<rect x="316.591" y="106.426" transform="matrix(-0.7071 0.7071 -0.7071 -0.7071 712.3068 22.5064)" style="fill:#E5E5E5;" width="69.802" height="104.702"/>
<rect x="343.487" y="142.244" transform="matrix(-0.7071 -0.7071 0.7071 -0.7071 506.1404 563.9409)" style="fill:#D3D3D3;" width="52.758" height="69.802"/>
<path style="fill:#FFC61B;" d="M379.166,229.826L221.715,387.277c-22.08,22.08-57.878,22.08-79.96,0l-18.756-18.756
	c-22.08-22.08-22.08-57.878,0-79.96L280.45,131.11L379.166,229.826z"/>
<path style="fill:#D48B07;" d="M132.091,377.611l9.664,9.664c22.08,22.08,57.878,22.08,79.96,0l157.451-157.451l-49.645-49.645
	L132.091,377.611z"/>
<g>
	
		<rect x="317.845" y="134.881" transform="matrix(0.7071 -0.7071 0.7071 0.7071 -2.464 279.3274)" style="fill:#386895;" width="36.202" height="15.515"/>
	
		<rect x="349.56" y="166.575" transform="matrix(0.7071 -0.7071 0.7071 0.7071 -15.586 311.036)" style="fill:#386895;" width="36.202" height="15.515"/>
</g>
<path style="fill:#FEE187;" d="M295.722,254.781l-80.453,80.453c-11.109,11.109-29.118,11.109-40.227,0l0,0
	c-11.109-11.109-11.109-29.118,0-40.226l80.453-80.453c11.109-11.109,29.119-11.109,40.227,0l0,0
	C306.829,225.663,306.829,243.672,295.722,254.781z"/>
<path style="fill:#FFC61B;" d="M295.421,214.281L174.77,334.932c0.095,0.098,0.176,0.205,0.272,0.302
	c11.109,11.109,29.118,11.109,40.226,0l80.453-80.453c11.109-11.107,11.109-29.118,0-40.226
	C295.624,214.457,295.519,214.378,295.421,214.281z"/>
<g>
</g>
<g>
</g>
<g>
</g>
<g>
</g>
<g>
</g>
<g>
</g>
<g>
</g>
<g>
</g>
<g>
</g>
<g>
</g>
<g>
</g>
<g>
</g>
<g>
</g>
<g>
</g>
<g>
</g>
</svg>
