<?xml version="1.0" standalone="no"?>
<!DOCTYPE svg PUBLIC "-//W3C//DTD SVG 20010904//EN"
 "http://www.w3.org/TR/2001/REC-SVG-20010904/DTD/svg10.dtd">
<svg version="1.0" xmlns="http://www.w3.org/2000/svg"
 width="1920.000000pt" height="1080.000000pt" viewBox="0 0 1920.000000 1080.000000"
 preserveAspectRatio="xMidYMid meet">

<g transform="translate(0.000000,1080.000000) scale(0.100000,-0.100000)"
fill="#000000" stroke="none">
<path d="M4545 9000 c-11 -5 -35 -9 -53 -9 -30 -1 -164 -60 -215 -96 -44 -31
-158 -169 -183 -224 -62 -134 -65 -154 -62 -406 l3 -220 30 3 c17 2 111 7 210
10 l180 7 6 221 c3 122 9 226 13 233 5 8 788 11 3012 11 l3004 0 0 -234 0
-234 193 -5 c105 -2 201 -6 212 -8 19 -4 20 2 23 196 3 212 -2 261 -44 376
-51 139 -160 260 -294 326 -47 22 -103 45 -125 49 -22 4 -754 7 -1627 6 -874
-1 -1684 -2 -1800 -2 -117 0 -719 2 -1338 4 -623 3 -1134 1 -1145 -4z"/>
<path d="M12200 8983 c-326 -3 -360 -7 -360 -45 0 -10 -7 -18 -15 -18 -24 0
-91 -71 -104 -109 -8 -25 -11 -719 -11 -2656 0 -2276 2 -2626 15 -2651 8 -16
44 -58 80 -94 l65 -64 0 -58 c0 -66 9 -86 65 -145 l39 -43 246 0 246 0 42 43
c42 42 42 44 42 115 l0 72 163 1 c851 7 1064 7 1080 3 14 -4 17 -17 17 -77 0
-70 1 -72 42 -114 l42 -43 246 0 246 0 39 43 c56 59 65 79 65 143 l0 57 70 67
c39 37 70 74 70 83 0 8 4 17 10 19 8 2 25 846 21 1033 -1 28 -3 990 -5 2138
-3 1525 -7 2092 -15 2100 -6 6 -11 19 -11 29 0 39 -73 129 -125 153 -25 12
-200 15 -1010 17 -539 2 -1122 2 -1295 1z m2140 -2833 l0 -2460 -1170 0 -1170
0 0 2460 0 2460 1170 0 1170 0 0 -2460z"/>
<path d="M12391 8076 c-13 -7 -30 -24 -37 -37 -17 -30 -18 -130 -2 -164 26
-57 1 -55 832 -55 572 0 772 3 791 12 37 17 55 57 55 123 0 66 -18 106 -55
123 -40 18 -1551 16 -1584 -2z"/>
<path d="M12391 7596 c-13 -7 -30 -24 -37 -37 -17 -30 -18 -149 -2 -184 26
-57 1 -55 832 -55 572 0 772 3 791 12 38 17 55 58 55 133 0 75 -17 116 -55
133 -40 18 -1551 16 -1584 -2z"/>
<path d="M12391 7116 c-13 -7 -30 -24 -37 -37 -17 -30 -18 -139 -2 -174 26
-57 1 -55 832 -55 572 0 772 3 791 12 38 17 55 58 55 128 0 70 -17 111 -55
128 -40 18 -1551 16 -1584 -2z"/>
<path d="M13071 5354 c-208 -56 -345 -246 -328 -454 18 -213 191 -380 412
-397 253 -19 475 183 475 432 0 282 -283 493 -559 419z m194 -243 c156 -70
151 -299 -7 -366 -92 -38 -195 5 -239 100 -59 128 35 285 171 285 19 0 53 -9
75 -19z"/>
<path d="M4030 7857 c-94 -34 -139 -60 -192 -111 -43 -41 -118 -144 -118 -160
0 -4 -10 -28 -22 -54 l-23 -47 -3 -784 c-2 -696 -1 -791 14 -840 23 -79 56
-141 114 -210 49 -59 155 -141 182 -141 8 0 25 -8 38 -17 23 -17 95 -18 1155
-18 l1130 0 98 48 c104 50 137 79 212 182 33 46 51 87 79 180 19 66 38 133 41
148 6 28 10 31 99 63 84 29 143 101 203 244 19 45 23 73 23 157 l0 103 -37 41
c-45 49 -81 69 -128 69 -20 0 -35 5 -35 12 0 12 22 109 40 178 5 19 12 58 16
87 l6 52 102 32 c141 44 274 63 446 62 205 -1 337 -21 480 -71 72 -26 74 -28
82 -67 13 -69 30 -149 38 -180 5 -16 11 -47 15 -67 l6 -38 -47 0 c-44 0 -51
-4 -102 -55 l-54 -54 4 -118 c3 -97 8 -127 27 -168 67 -141 165 -235 248 -235
48 0 48 0 63 -113 5 -42 18 -94 28 -114 11 -21 23 -49 27 -63 20 -66 143 -209
219 -255 116 -69 31 -65 1257 -65 l1110 0 62 26 c171 71 286 202 333 377 20
76 21 1565 0 1605 -7 15 -16 44 -20 64 -8 44 -80 152 -139 208 -23 23 -78 60
-122 83 l-80 42 -1280 0 c-1370 0 -1275 3 -1375 -44 -75 -35 -144 -91 -199
-160 -28 -37 -42 -67 -55 -127 -26 -110 -27 -111 -128 -90 -46 9 -105 21 -131
27 -27 5 -144 9 -261 9 -181 0 -226 -3 -307 -21 -52 -12 -114 -24 -139 -26
l-45 -5 -12 49 c-22 92 -54 162 -97 210 -42 46 -172 143 -193 143 -5 0 -25 8
-44 18 -32 16 -116 17 -1289 19 l-1255 3 -65 -23z m6823 -350 c16 -10 37 -32
47 -50 19 -31 20 -56 20 -775 0 -827 3 -784 -68 -832 l-37 -25 -1054 -3 -1053
-2 -43 43 c-44 44 -57 76 -85 212 -7 33 -18 80 -26 104 -8 25 -14 57 -14 73 0
27 -7 64 -36 178 -7 30 -15 73 -18 95 -3 22 -10 60 -16 85 -10 43 -19 96 -55
325 -9 55 -20 116 -25 135 -5 19 -11 55 -15 80 -3 25 -15 72 -25 105 -10 33
-21 88 -25 121 -5 56 -4 64 20 93 24 27 64 52 102 63 7 1 545 1 1196 -2 1118
-5 1184 -6 1210 -23z m-4294 -2 c71 -44 84 -82 57 -160 -8 -22 -26 -107 -41
-190 -14 -82 -30 -169 -36 -193 -5 -23 -9 -59 -9 -80 0 -20 -9 -74 -20 -120
-11 -46 -20 -94 -20 -106 0 -13 -7 -40 -15 -59 -8 -20 -15 -57 -15 -81 0 -25
-6 -63 -14 -83 -8 -21 -17 -56 -20 -78 -3 -22 -10 -60 -16 -85 -12 -53 -38
-186 -50 -252 -13 -71 -42 -129 -84 -165 l-37 -33 -1047 0 -1047 0 -38 23
c-21 13 -47 36 -57 53 -19 28 -20 54 -20 783 l0 754 26 35 c50 65 -27 61 1277
62 l1187 0 39 -25z"/>
<path d="M9559 7156 c-60 -17 -183 -89 -237 -140 -50 -47 -82 -101 -112 -191
-19 -57 -22 -82 -18 -168 4 -87 10 -113 37 -175 18 -41 46 -93 62 -115 46 -63
117 -117 154 -117 9 0 33 -13 53 -29 88 -68 304 -58 434 20 160 97 234 214
255 404 6 61 -7 119 -29 123 -9 2 -36 -17 -61 -42 -56 -57 -80 -66 -174 -66
-92 0 -122 13 -194 86 l-54 55 0 102 c0 124 9 148 80 206 30 24 52 48 49 53
-8 12 -193 8 -245 -6z"/>
<path d="M5145 7166 c-148 -45 -252 -119 -308 -221 -59 -107 -80 -186 -74
-279 7 -112 15 -139 69 -237 50 -91 104 -149 166 -176 20 -10 45 -24 54 -31
21 -18 159 -51 211 -52 58 0 179 36 251 76 150 82 246 253 246 437 0 105 -12
112 -83 43 -61 -58 -83 -66 -187 -66 -53 0 -77 5 -116 26 -66 35 -82 52 -110
120 -48 118 -19 243 71 306 25 18 45 37 45 43 0 12 -100 36 -141 34 -13 -1
-56 -11 -94 -23z"/>
<path d="M4056 5279 l-26 -20 0 -409 c0 -327 3 -414 14 -437 7 -15 30 -63 50
-106 26 -56 56 -99 104 -149 84 -88 127 -117 225 -157 l79 -31 964 0 c646 0
972 -3 985 -10 26 -14 24 -35 -11 -121 -16 -41 -30 -81 -30 -90 0 -8 -7 -24
-15 -35 -8 -10 -15 -27 -15 -37 0 -10 -9 -38 -20 -62 -11 -24 -27 -70 -35
-101 -8 -32 -21 -61 -27 -66 -7 -4 -93 -8 -190 -8 l-177 0 -36 -31 c-73 -65
-84 -127 -34 -203 18 -26 43 -52 56 -57 14 -5 650 -9 1560 -9 1702 0 1563 -6
1612 65 34 50 38 103 12 154 -38 74 -60 81 -263 81 -188 0 -208 5 -208 51 0
18 -40 133 -75 214 -7 17 -16 46 -20 65 -4 19 -16 52 -26 72 -11 21 -19 50
-19 65 0 62 -73 58 1002 63 936 5 985 6 1023 24 22 10 60 28 85 39 28 13 80
56 134 111 72 74 96 106 126 171 21 44 42 101 49 127 7 31 11 181 11 437 0
341 -2 392 -16 405 -13 13 -45 16 -198 16 -164 0 -185 -2 -199 -18 -14 -15
-17 -50 -19 -223 l-3 -204 -2985 -3 c-1642 -1 -2995 0 -3007 3 -23 5 -23 6
-23 215 0 197 -1 210 -19 220 -12 6 -93 10 -194 10 -161 0 -176 -2 -201 -21z
m3499 -679 c151 -73 190 -250 82 -368 -52 -55 -89 -72 -165 -72 -47 0 -67 5
-103 29 -56 36 -84 67 -104 113 -32 77 -11 173 53 240 72 75 158 96 237 58z"/>
<path d="M4140 2269 l0 -559 5360 0 5360 0 0 560 0 560 -5360 -1 -5360 -1 0
-559z m477 399 c109 -41 203 -169 203 -278 l0 -40 -88 0 -89 0 -12 42 c-37
120 -174 143 -236 38 -16 -28 -21 -57 -24 -147 -3 -98 0 -118 18 -155 53 -111
197 -104 238 11 l18 51 87 0 88 0 0 -43 c0 -29 -11 -65 -31 -105 -121 -244
-451 -241 -570 5 -46 95 -50 326 -7 440 59 160 243 242 405 181z m707 -8 c60
-28 128 -97 158 -157 22 -45 23 -59 23 -228 0 -171 -1 -182 -25 -230 -31 -64
-92 -124 -155 -156 -74 -36 -189 -35 -267 4 -67 33 -121 90 -157 166 -25 53
-26 64 -26 216 0 173 9 211 71 292 86 113 253 154 378 93z m530 -242 c51 -147
94 -270 97 -272 2 -2 47 119 99 270 l94 274 93 0 93 0 0 -415 0 -415 -95 0
-95 0 -1 133 -1 132 -45 -133 -45 -133 -95 3 -96 3 -46 134 -46 134 -3 -136
-3 -137 -94 0 -95 0 0 415 0 416 96 -3 96 -3 92 -267z m888 262 c103 -29 178
-134 178 -249 -1 -147 -99 -246 -257 -259 l-63 -5 0 -153 0 -154 -90 0 -90 0
0 415 0 415 143 0 c78 0 159 -5 179 -10z m2018 -85 l0 -95 -155 0 -155 0 0
-65 0 -65 115 0 115 0 0 -95 0 -95 -115 0 -115 0 0 -65 0 -65 155 0 155 0 0
-95 0 -95 -250 0 -250 0 0 415 0 415 250 0 250 0 0 -95z m416 71 c87 -41 154
-143 154 -236 0 -59 -30 -129 -74 -175 -22 -23 -47 -44 -55 -47 -10 -3 5 -46
63 -171 42 -92 76 -170 76 -173 0 -2 -43 -3 -96 -2 l-96 3 -67 147 -66 148 -3
-150 -3 -150 -94 0 -95 0 0 415 0 415 153 0 c139 0 156 -2 203 -24z m683 -11
c97 -53 171 -167 171 -265 l0 -40 -88 0 -89 0 -12 42 c-37 120 -174 143 -236
38 -16 -28 -21 -57 -24 -147 -3 -98 0 -118 18 -155 53 -111 197 -104 238 11
l18 51 87 0 88 0 0 -42 c0 -62 -47 -155 -105 -206 -160 -141 -401 -91 -495
102 -54 112 -51 359 6 471 34 69 98 127 168 155 76 30 183 24 255 -15z m403
-122 l3 -158 108 -3 107 -3 0 161 0 160 95 0 95 0 0 -415 0 -415 -95 0 -95 0
0 160 0 161 -107 -3 -108 -3 -3 -157 -3 -158 -89 0 -90 0 0 415 0 415 90 0 89
0 3 -157z m1083 -245 c76 -222 140 -409 143 -416 3 -10 -18 -12 -98 -10 l-103
3 -18 55 c-11 30 -35 101 -55 158 l-36 103 -76 -3 -75 -3 -55 -157 -55 -158
-93 0 c-89 0 -94 1 -94 21 0 17 154 476 260 777 l12 32 102 0 103 0 138 -402z
m645 373 c98 -50 180 -174 180 -271 l0 -40 -88 0 -89 0 -12 42 c-26 87 -105
127 -178 92 -61 -31 -77 -71 -82 -201 -3 -100 -1 -117 19 -158 53 -109 196
-100 237 16 l18 49 87 0 88 0 0 -43 c0 -60 -50 -156 -107 -206 -157 -139 -400
-89 -492 101 -48 100 -53 329 -9 445 28 75 103 152 178 182 73 28 184 25 250
-8z m411 -133 l-2 -158 111 0 110 0 0 160 0 160 95 0 95 0 0 -415 0 -415 -95
0 -95 0 0 160 0 160 -110 0 -110 0 0 -160 0 -160 -90 0 -90 0 0 415 0 416 91
-3 91 -3 -1 -157z m1084 -240 c76 -222 140 -409 143 -416 3 -10 -18 -12 -98
-10 l-103 3 -28 85 c-16 47 -41 118 -55 158 l-26 73 -76 -3 -75 -3 -55 -157
-55 -158 -93 0 c-89 0 -94 1 -94 21 0 17 154 476 260 777 l12 32 102 0 103 0
138 -402z m635 -13 l0 -415 -90 0 -90 0 0 415 0 415 90 0 90 0 0 -415z m387
193 l112 -223 0 223 1 222 95 0 95 0 0 -415 0 -415 -95 0 -95 0 -114 228 -115
227 0 -227 -1 -228 -95 0 -95 0 0 415 0 415 98 0 97 0 112 -222z m-7357 -50
c0 -294 3 -312 69 -355 66 -44 146 -18 181 60 18 38 20 67 20 300 l0 257 90 0
90 0 0 -280 c0 -256 -2 -284 -20 -334 -44 -116 -151 -195 -278 -203 -127 -9
-242 59 -301 179 l-31 61 0 289 0 288 90 0 90 0 0 -262z m1060 167 l0 -95 -95
0 -95 0 0 -315 0 -315 -95 0 -95 0 0 315 0 315 -85 0 -85 0 0 95 0 95 275 0
275 0 0 -95z m5660 -615 l0 -90 -90 0 -90 0 0 90 0 90 90 0 90 0 0 -90z"/>
</g>
</svg>
